<svg width="156" height="174" viewBox="0 0 156 174" fill="none" xmlns="http://www.w3.org/2000/svg">
<path d="M20.6061 142.327V146.656H13.2918V166.774H8.15029V146.656H0.802878V142.327H20.6061ZM29.8887 148.264C29.9771 148.264 30.049 148.27 30.1043 148.281C30.1706 148.281 30.3088 148.287 30.5189 148.298V153.141C30.2204 153.107 29.955 153.085 29.7228 153.074C29.4906 153.063 29.3026 153.058 29.1589 153.058C27.2571 153.058 25.98 153.677 25.3276 154.915C24.9627 155.612 24.7803 156.684 24.7803 158.133V166.774H20.0202V148.696H24.5315V151.847C25.2613 150.642 25.8971 149.818 26.4389 149.376C27.3234 148.635 28.4734 148.264 29.8887 148.264ZM41.9742 157.984C41.6757 158.172 41.3716 158.326 41.062 158.448C40.7635 158.559 40.3488 158.664 39.8181 158.763L38.7566 158.962C37.7615 159.139 37.0483 159.355 36.6171 159.609C35.8873 160.04 35.5224 160.709 35.5224 161.616C35.5224 162.423 35.7436 163.009 36.1859 163.374C36.6392 163.728 37.1865 163.905 37.8278 163.905C38.8451 163.905 39.7794 163.606 40.6308 163.009C41.4932 162.412 41.9411 161.323 41.9742 159.742V157.984ZM39.1049 155.778C39.9784 155.667 40.6032 155.529 40.9791 155.363C41.6536 155.076 41.9908 154.628 41.9908 154.02C41.9908 153.279 41.731 152.77 41.2113 152.494C40.7027 152.206 39.9508 152.063 38.9557 152.063C37.8389 152.063 37.0483 152.339 36.5839 152.892C36.2522 153.301 36.0311 153.854 35.9205 154.55H31.3595C31.459 152.969 31.9013 151.67 32.6863 150.653C33.9358 149.061 36.0808 148.264 39.1215 148.264C41.1007 148.264 42.8588 148.657 44.3957 149.442C45.9327 150.227 46.7011 151.709 46.7011 153.887V162.18C46.7011 162.755 46.7122 163.451 46.7343 164.27C46.7675 164.889 46.8614 165.309 47.0162 165.53C47.171 165.751 47.4032 165.934 47.7128 166.077V166.774H42.5713C42.4276 166.409 42.3281 166.066 42.2728 165.746C42.2175 165.425 42.1733 165.06 42.1401 164.651C41.4877 165.359 40.7358 165.961 39.8844 166.459C38.8672 167.045 37.7173 167.338 36.4346 167.338C34.7982 167.338 33.4437 166.873 32.3712 165.945C31.3097 165.005 30.779 163.678 30.779 161.964C30.779 159.742 31.6359 158.133 33.3497 157.138C34.2896 156.596 35.6717 156.209 37.4961 155.977L39.1049 155.778ZM54.4744 146.54H49.6812V142.178H54.4744V146.54ZM49.6812 148.696H54.4744V166.774H49.6812V148.696ZM67.7873 148.264C69.656 148.264 71.1819 148.756 72.365 149.741C73.5591 150.714 74.1562 152.333 74.1562 154.6V166.774H69.3132V155.778C69.3132 154.827 69.1861 154.097 68.9317 153.588C68.4673 152.66 67.5828 152.195 66.278 152.195C64.6748 152.195 63.5746 152.875 62.9775 154.235C62.6679 154.954 62.5131 155.872 62.5131 156.988V166.774H57.8028V148.729H62.3639V151.366C62.972 150.437 63.547 149.768 64.0888 149.359C65.0618 148.629 66.2946 148.264 67.7873 148.264ZM84.3676 152.112C83.2729 152.112 82.4216 152.455 81.8134 153.141C81.2163 153.826 80.8404 154.755 80.6856 155.927H88.033C87.9556 154.678 87.5741 153.732 86.8886 153.091C86.2141 152.438 85.3738 152.112 84.3676 152.112ZM84.3676 148.215C85.8714 148.215 87.2258 148.497 88.4311 149.061C89.6363 149.624 90.6314 150.515 91.4165 151.731C92.1241 152.803 92.583 154.047 92.7931 155.463C92.9147 156.292 92.9645 157.486 92.9423 159.045H80.5695C80.6358 160.858 81.2053 162.13 82.2778 162.86C82.9302 163.313 83.7152 163.54 84.633 163.54C85.606 163.54 86.3966 163.263 87.0047 162.71C87.3364 162.412 87.6294 161.997 87.8837 161.467H92.7101C92.5885 162.539 92.0301 163.628 91.035 164.734C89.487 166.492 87.3198 167.371 84.5335 167.371C82.2336 167.371 80.2046 166.63 78.4465 165.149C76.6885 163.667 75.8094 161.256 75.8094 157.917C75.8094 154.788 76.6 152.389 78.1812 150.719C79.7734 149.049 81.8355 148.215 84.3676 148.215ZM104.663 148.264C104.751 148.264 104.823 148.27 104.879 148.281C104.945 148.281 105.083 148.287 105.293 148.298V153.141C104.995 153.107 104.729 153.085 104.497 153.074C104.265 153.063 104.077 153.058 103.933 153.058C102.031 153.058 100.754 153.677 100.102 154.915C99.7371 155.612 99.5547 156.684 99.5547 158.133V166.774H94.7946V148.696H99.3059V151.847C100.036 150.642 100.671 149.818 101.213 149.376C102.098 148.635 103.248 148.264 104.663 148.264ZM107.129 166.774V142.327H112.188V151.648H121.741V142.327H126.816V166.774H121.741V155.861H112.188V166.774H107.129ZM141.174 163.125C141.76 163.125 142.324 163.053 142.866 162.909C143.164 162.832 143.546 162.694 144.01 162.495L141.539 160.14L144.176 157.386L146.647 159.742C147.034 158.946 147.305 158.249 147.46 157.652C147.703 156.756 147.825 155.711 147.825 154.517C147.825 151.775 147.261 149.658 146.133 148.165C145.016 146.661 143.38 145.909 141.224 145.909C139.2 145.909 137.586 146.628 136.381 148.065C135.175 149.503 134.573 151.653 134.573 154.517C134.573 157.867 135.435 160.267 137.16 161.715C138.277 162.655 139.615 163.125 141.174 163.125ZM152.933 154.152C152.933 156.331 152.668 158.155 152.137 159.626C151.706 161.03 151.07 162.196 150.23 163.125L153.049 165.762L150.379 168.549L147.427 165.762C146.531 166.304 145.757 166.685 145.105 166.907C144.01 167.271 142.7 167.454 141.174 167.454C137.989 167.454 135.358 166.503 133.279 164.601C130.758 162.312 129.498 158.951 129.498 154.517C129.498 150.05 130.791 146.672 133.379 144.383C135.49 142.515 138.117 141.58 141.257 141.58C144.419 141.58 147.073 142.57 149.218 144.549C151.695 146.838 152.933 150.039 152.933 154.152Z" fill="#FF6A00"/>
<path d="M62.9706 52.9915L68.4805 47.3196L79.8243 58.3393C80.9911 59.6357 82.9034 58.8795 83.7136 58.3393L121.796 19.4462C122.963 18.409 124.659 19.0141 125.362 19.4462L129.413 23.1735C130.321 24.3402 129.791 25.8203 129.413 26.4145L83.7136 71.4657C82.4172 72.6325 80.7966 71.9519 80.1484 71.4657L62.9706 55.2603V52.9915Z" fill="#FF6A00"/>
<rect x="35.2593" y="83.2964" width="16.2055" height="42.1342" rx="4.53753" fill="#FF6A00"/>
<rect width="16.2055" height="42.1342" rx="4.53753" transform="matrix(-1 0 0 1 126.01 83.2964)" fill="#FF6A00"/>
<path d="M22.295 95.6118C22.295 94.0008 23.601 92.6948 25.212 92.6948H31.6941V116.031H25.212C23.601 116.031 22.295 114.725 22.295 113.114V95.6118Z" fill="#FF6A00"/>
<path d="M138.974 95.6118C138.974 94.0008 137.668 92.6948 136.057 92.6948H129.575V116.031H136.057C137.668 116.031 138.974 114.725 138.974 113.114V95.6118Z" fill="#FF6A00"/>
<rect x="55.03" y="99.8257" width="51.2092" height="10.0474" fill="#FF6A00"/>
<rect x="48.5478" y="40.8374" width="36.6243" height="19.1224" transform="rotate(90 48.5478 40.8374)" fill="#FF6A00"/>
<path d="M78.0418 22.5254H58.9193C58.9733 30.358 59.0814 46.5419 59.0814 48.6162C59.0814 50.6905 60.8099 49.4805 61.6742 48.6162L62.3225 47.968L66.3738 43.2684C67.9295 41.583 70.0471 42.5661 70.9114 43.2684L76.0971 48.9403C77.2639 50.496 77.8797 49.5885 78.0418 48.9403V22.5254Z" fill="#FF6A00"/>
<path d="M58.9193 58.6636L69.6149 68.3868L79.3382 77.4619H58.9193V58.6636Z" fill="#FF6A00"/>
<path d="M88.2512 46.0234L98.7847 35.9761L108.508 26.901L108.184 -6.10352e-05L88.0891 0.161995L88.2512 46.0234Z" fill="#FF6A00"/>
<path d="M107.536 77.2999V54.6123L88.4132 72.7624V77.2999H107.536Z" fill="#FF6A00"/>
</svg>
